# Blender v2.66 (sub 0) OBJ File: 'castle source.blend'
# www.blender.org
o castle.002_Cylinder.010
v 0.000000 10.323776 -6.621865
v 0.000000 11.874590 -6.621865
v 3.310932 10.323776 -5.734703
v 3.310932 11.874590 -5.734703
v 5.734703 10.323776 -3.310932
v 5.734703 11.874590 -3.310932
v 6.621864 10.323776 -0.000000
v 6.621864 11.874590 -0.000000
v 5.734703 10.323776 3.310932
v 5.734703 11.874590 3.310932
v 3.310933 10.323776 5.734702
v 3.310933 11.874590 5.734702
v 0.000001 10.323776 6.621863
v 0.000001 11.874590 6.621863
v -3.310930 10.323776 5.734702
v -3.310930 11.874590 5.734702
v -5.734701 10.323776 3.310933
v -5.734701 11.874590 3.310933
v -6.621864 10.323776 0.000002
v -6.621864 11.874590 0.000002
v -5.734704 10.323776 -3.310929
v -5.734704 11.874590 -3.310929
v -3.310936 10.323776 -5.734701
v -3.310936 11.874590 -5.734701
v 2.773174 9.916287 -2.429246
v 3.987798 9.916287 -2.103789
v 4.876964 9.916287 -1.214623
v 5.202421 9.916287 -0.000000
v 4.876964 9.916287 1.214623
v 3.987798 9.916287 2.103789
v 2.773175 9.916287 2.429246
v 1.558552 9.916287 2.103790
v 0.669385 9.916287 1.214624
v 0.343928 9.916287 0.000001
v 0.669384 9.916287 -1.214622
v 1.558550 9.916287 -2.103789
v 2.773174 7.636961 -2.429246
v 3.987798 7.636961 -2.103789
v 4.876964 7.636961 -1.214623
v 5.202421 7.636961 -0.000000
v 4.876964 7.636961 1.214623
v 3.987798 7.636961 2.103789
v 2.773175 7.636961 2.429246
v 1.558552 7.636961 2.103790
v 0.669385 7.636961 1.214624
v 0.343928 7.636961 0.000001
v 0.669384 7.636961 -1.214622
v 1.558550 7.636961 -2.103789
v 2.773174 7.611410 -3.316564
v 4.431457 7.611410 -2.872229
v 5.645403 7.611410 -1.658282
v 6.089738 7.611410 -0.000000
v 5.645403 7.611410 1.658282
v 4.431457 7.611410 2.872229
v 2.773175 7.611410 3.316564
v 1.114893 7.611410 2.872229
v -0.099054 7.611410 1.658283
v -0.543390 7.611410 0.000001
v -0.099056 7.611410 -1.658281
v 1.114890 7.611410 -2.872228
v 2.773174 6.379561 -3.316564
v 4.431457 6.379561 -2.872229
v 5.645403 6.379561 -1.658282
v 6.089738 6.379561 -0.000000
v 5.645403 6.379561 1.658282
v 4.431457 6.379561 2.872229
v 2.773175 6.379561 3.316564
v 1.114893 6.379561 2.872229
v -0.099054 6.379561 1.658283
v -0.543390 6.379561 0.000001
v -0.099056 6.379561 -1.658281
v 1.114890 6.379561 -2.872228
v 2.773175 3.841999 -2.211701
v 3.879025 3.841999 -1.915390
v 4.688564 3.841999 -1.105851
v 4.984876 3.841999 -0.000000
v 4.688564 3.841999 1.105851
v 3.879025 3.841999 1.915390
v 2.773175 3.841999 2.211701
v 1.667325 3.841999 1.915390
v 0.857785 3.841999 1.105851
v 0.561473 3.841999 0.000001
v 0.857784 3.841999 -1.105850
v 1.667323 3.841999 -1.915389
v 2.773175 -2.207596 -2.211701
v 3.879025 -2.207596 -1.915390
v 4.688564 -2.207596 -1.105851
v 4.984876 -2.207596 -0.000000
v 4.688564 -2.207596 1.105851
v 3.879025 -2.207596 1.915390
v 2.773175 -2.207596 2.211701
v 1.667325 -2.207596 1.915390
v 0.857785 -2.207596 1.105851
v 0.561473 -2.207596 0.000001
v 0.857784 -2.207596 -1.105850
v 1.667323 -2.207596 -1.915389
v 0.000000 13.148450 -6.621865
v 3.310932 13.148450 -5.734703
v 5.734703 13.148450 -3.310932
v 6.621864 13.148450 -0.000000
v 5.734703 13.148450 3.310932
v 3.310933 13.148450 5.734702
v 0.000001 13.148450 6.621863
v -3.310930 13.148450 5.734702
v -5.734701 13.148450 3.310933
v -6.621864 13.148450 0.000002
v -5.734704 13.148450 -3.310929
v -3.310936 13.148450 -5.734701
v 0.000000 11.874590 -6.621865
v 3.310932 11.874590 -5.734703
v 5.734703 11.874590 -3.310932
v 6.621864 11.874590 -0.000000
v 5.734703 11.874590 3.310932
v 3.310933 11.874590 5.734702
v 0.000001 11.874590 6.621863
v -3.310930 11.874590 5.734702
v -5.734701 11.874590 3.310933
v -6.621864 11.874590 0.000002
v -5.734704 11.874590 -3.310929
v -3.310936 11.874590 -5.734701
v 0.000000 13.148450 -6.621865
v 3.310932 13.148450 -5.734703
v 5.734703 13.148450 -3.310932
v 6.621864 13.148450 -0.000000
v 5.734703 13.148450 3.310932
v 3.310933 13.148450 5.734702
v 0.000001 13.148450 6.621863
v -3.310930 13.148450 5.734702
v -5.734701 13.148450 3.310933
v -6.621864 13.148450 0.000002
v -5.734704 13.148450 -3.310929
v -3.310936 13.148450 -5.734701
vt 0.813880 0.830697
vt 0.813880 0.996145
vt 0.620349 0.996145
vt 0.620349 0.830697
vt 0.591196 0.620289
vt 0.836861 0.620289
vt 0.836861 0.749481
vt 0.591196 0.749481
vt 0.086265 0.509040
vt 0.129464 0.509040
vt 0.129464 0.552239
vt 0.086265 0.552239
vt 0.196337 0.395473
vt 0.262405 0.395473
vt 0.262405 0.461541
vt 0.196337 0.461541
vt 0.166522 0.519219
vt 0.214898 0.519219
vt 0.214898 0.567594
vt 0.166522 0.567594
vt 0.229371 0.461541
vt 0.245888 0.457115
vt 0.257979 0.445024
vt 0.262405 0.428507
vt 0.257979 0.411990
vt 0.245888 0.399899
vt 0.229371 0.395473
vt 0.212854 0.399899
vt 0.200763 0.411990
vt 0.196337 0.428507
vt 0.200763 0.445024
vt 0.212854 0.457115
vt 0.410251 0.525716
vt 0.451833 0.514574
vt 0.482274 0.484133
vt 0.493416 0.442550
vt 0.482274 0.400968
vt 0.451833 0.370527
vt 0.410251 0.359385
vt 0.368668 0.370527
vt 0.338227 0.400968
vt 0.327085 0.442550
vt 0.338227 0.484133
vt 0.368668 0.514574
vn -0.004486 -0.622913 -0.782250
vn 0.000000 0.000000 -1.000000
vn 0.499985 0.000000 -0.866024
vn 0.389843 -0.608936 -0.690756
vn 0.866024 0.000000 -0.499985
vn 0.698386 -0.582598 -0.415693
vn 0.999969 0.000000 0.000000
vn 0.829768 -0.558092 0.000000
vn 0.866024 0.000000 0.499985
vn 0.698386 -0.582598 0.415693
vn 0.499985 0.000000 0.866024
vn 0.389843 -0.608936 0.690756
vn 0.000000 0.000000 1.000000
vn -0.004486 -0.622913 0.782250
vn -0.499985 0.000000 0.866024
vn -0.390423 -0.629871 0.671407
vn -0.866024 0.000000 0.499985
vn -0.670827 -0.633168 0.386059
vn -1.000000 0.000000 0.000000
vn -0.773217 -0.634114 0.000000
vn -0.866024 0.000000 -0.499985
vn -0.670827 -0.633168 -0.386059
vn -0.390423 -0.629871 -0.671407
vn -0.499985 0.000000 -0.866024
vn 0.370220 -0.703970 -0.606067
vn 0.009644 -0.728721 -0.684713
vn 0.009644 -0.728721 0.684713
vn -0.331553 -0.740776 0.584185
vn -0.325388 0.759239 0.563585
vn 0.000000 0.759239 0.650777
vn -0.331553 -0.740776 -0.584185
vn -0.575518 -0.746147 -0.334697
vn -0.664052 -0.747673 0.000000
vn -0.575518 -0.746147 0.334697
vn 0.370220 -0.703970 0.606067
vn 0.656240 -0.667470 0.351848
vn 0.756188 -0.654317 0.000000
vn 0.656240 -0.667470 -0.351848
vn -0.382550 0.643849 0.662618
vn 0.000000 0.643849 0.765130
vn 0.325388 0.759239 -0.563585
vn 0.000000 0.759239 -0.650777
vn -0.563585 0.759239 0.325388
vn 0.563585 0.759239 -0.325388
vn -0.650777 0.759239 0.000000
vn 0.650777 0.759239 0.000000
vn -0.563585 0.759239 -0.325388
vn 0.563585 0.759239 0.325388
vn -0.325388 0.759239 -0.563585
vn 0.325388 0.759239 0.563585
vn -0.662618 0.643849 0.382550
vn -0.848964 -0.197455 0.490127
vn -0.490127 -0.197455 0.848964
vn 0.382550 0.643849 -0.662618
vn 0.000000 0.643849 -0.765130
vn 0.662618 0.643849 -0.382550
vn -0.765130 0.643849 0.000000
vn 0.765130 0.643849 0.000000
vn -0.662618 0.643849 -0.382550
vn 0.662618 0.643849 0.382550
vn -0.382550 0.643849 -0.662618
vn 0.382550 0.643849 0.662618
vn -0.980285 -0.197455 0.000000
vn -0.977477 -0.210913 0.000000
vn -0.846522 -0.210913 0.488723
vn 0.848964 -0.197455 -0.490127
vn 0.490127 -0.197455 -0.848964
vn 0.980285 -0.197455 0.000000
vn -0.848964 -0.197455 -0.490127
vn 0.848964 -0.197455 0.490127
vn -0.490127 -0.197455 -0.848964
vn 0.490127 -0.197455 0.848964
vn 0.000000 -0.197455 -0.980285
vn 0.000000 -0.197455 0.980285
vn -0.757134 -0.653218 0.000000
vn -0.655721 -0.653218 0.378552
vn 0.977477 -0.210913 0.000000
vn 0.846522 -0.210913 -0.488723
vn -0.846522 -0.210913 -0.488723
vn 0.846522 -0.210913 0.488723
vn -0.488723 -0.210913 -0.846522
vn 0.488723 -0.210913 0.846522
vn 0.000000 -0.210913 -0.977477
vn 0.000000 -0.210913 0.977477
vn -0.488723 -0.210913 0.846522
vn 0.488723 -0.210913 -0.846522
vn 0.000000 -0.653218 -0.757134
vn 0.378552 -0.653218 -0.655721
vn 0.655721 -0.653218 -0.378552
vn 0.757134 -0.653218 0.000000
vn 0.655721 -0.653218 0.378552
vn 0.378552 -0.653218 0.655721
vn 0.000000 -0.653218 0.757134
vn -0.378552 -0.653218 0.655721
vn -0.655721 -0.653218 -0.378552
vn -0.378552 -0.653218 -0.655721
vn 0.655721 0.653218 0.378552
vn 1.000000 0.000000 0.000000
vn 0.757134 0.653218 0.000000
vn 0.000000 0.000000 0.999969
vn 0.655721 0.653218 -0.378552
vn 0.378552 0.653218 -0.655721
vn 0.000000 0.653218 -0.757134
vn 0.000000 0.000000 -0.999969
vn -0.378552 0.653218 -0.655721
vn -0.655721 0.653218 -0.378552
vn -0.999969 0.000000 0.000000
vn -0.757134 0.653218 0.000000
vn -0.655721 0.653218 0.378552
vn -0.378552 0.653218 0.655721
vn 0.000000 0.653218 0.757134
vn 0.378552 0.653218 0.655721
s 1
f 1/1/1 2/2/2 4/3/3 3/4/4
f 3/1/4 4/2/3 6/3/5 5/4/6
f 5/1/6 6/2/5 8/3/7 7/4/8
f 7/1/8 8/2/7 10/3/9 9/4/10
f 9/1/10 10/2/9 12/3/11 11/4/12
f 11/1/12 12/2/11 14/3/13 13/4/14
f 13/1/14 14/2/13 16/3/15 15/4/16
f 15/1/16 16/2/15 18/3/17 17/4/18
f 17/1/18 18/2/17 20/3/19 19/4/20
f 19/1/20 20/2/19 22/3/21 21/4/22
f 22/5/21 20/6/19 106/7/19 107/8/21
f 23/1/23 24/2/24 2/3/2 1/4/1
f 21/1/22 22/2/21 24/3/24 23/4/23
f 1/9/1 3/10/4 26/11/25 25/12/26
f 31/13/27 32/14/28 44/15/29 43/16/30
f 21/9/22 23/10/23 36/11/31 35/12/32
f 17/9/18 19/10/20 34/11/33 33/12/34
f 13/9/14 15/10/16 32/11/28 31/12/27
f 9/9/10 11/10/12 30/11/35 29/12/36
f 5/9/6 7/10/8 28/11/37 27/12/38
f 23/9/23 1/10/1 25/11/26 36/12/31
f 19/9/20 21/10/22 35/11/32 34/12/33
f 15/9/16 17/10/18 33/11/34 32/12/28
f 11/9/12 13/10/14 31/11/27 30/12/35
f 7/9/8 9/10/10 29/11/36 28/12/37
f 3/9/4 5/10/6 27/11/38 26/12/25
f 43/9/30 44/10/29 56/11/39 55/12/40
f 25/13/26 26/14/25 38/15/41 37/16/42
f 32/13/28 33/14/34 45/15/43 44/16/29
f 26/13/25 27/14/38 39/15/44 38/16/41
f 33/13/34 34/14/33 46/15/45 45/16/43
f 27/13/38 28/14/37 40/15/46 39/16/44
f 34/13/33 35/14/32 47/15/47 46/16/45
f 28/13/37 29/14/36 41/15/48 40/16/46
f 35/13/32 36/14/31 48/15/49 47/16/47
f 29/13/36 30/14/35 42/15/50 41/16/48
f 36/13/31 25/14/26 37/15/42 48/16/49
f 30/13/35 31/14/27 43/15/30 42/16/50
f 56/17/39 57/18/51 69/19/52 68/20/53
f 37/9/42 38/10/41 50/11/54 49/12/55
f 44/9/29 45/10/43 57/11/51 56/12/39
f 38/9/41 39/10/44 51/11/56 50/12/54
f 45/9/43 46/10/45 58/11/57 57/12/51
f 39/9/44 40/10/46 52/11/58 51/12/56
f 46/9/45 47/10/47 59/11/59 58/12/57
f 40/9/46 41/10/48 53/11/60 52/12/58
f 47/9/47 48/10/49 60/11/61 59/12/59
f 41/9/48 42/10/50 54/11/62 53/12/60
f 48/9/49 37/10/42 49/11/55 60/12/61
f 42/9/50 43/10/30 55/11/40 54/12/62
f 69/13/52 70/14/63 82/15/64 81/16/65
f 50/17/54 51/18/56 63/19/66 62/20/67
f 57/17/51 58/18/57 70/19/63 69/20/52
f 51/17/56 52/18/58 64/19/68 63/20/66
f 58/17/57 59/18/59 71/19/69 70/20/63
f 52/17/58 53/18/60 65/19/70 64/20/68
f 59/17/59 60/18/61 72/19/71 71/20/69
f 53/17/60 54/18/62 66/19/72 65/20/70
f 60/17/61 49/18/55 61/19/73 72/20/71
f 54/17/62 55/18/40 67/19/74 66/20/72
f 55/17/40 56/18/39 68/19/53 67/20/74
f 49/17/55 50/18/54 62/19/67 61/20/73
f 81/13/65 82/14/64 94/15/75 93/16/76
f 63/13/66 64/14/68 76/15/77 75/16/78
f 70/13/63 71/14/69 83/15/79 82/16/64
f 64/13/68 65/14/70 77/15/80 76/16/77
f 71/13/69 72/14/71 84/15/81 83/16/79
f 65/13/70 66/14/72 78/15/82 77/16/80
f 72/13/71 61/14/73 73/15/83 84/16/81
f 66/13/72 67/14/74 79/15/84 78/16/82
f 67/13/74 68/14/53 80/15/85 79/16/84
f 61/13/73 62/14/67 74/15/86 73/16/83
f 68/13/53 69/14/52 81/15/65 80/16/85
f 62/13/67 63/14/66 75/15/78 74/16/86
f 85/21/87 86/22/88 87/23/89 88/24/90 89/25/91 90/26/92 91/27/93 92/28/94 93/29/76 94/30/75 95/31/95 96/32/96
f 75/13/78 76/14/77 88/15/90 87/16/89
f 82/13/64 83/14/79 95/15/95 94/16/75
f 76/13/77 77/14/80 89/15/91 88/16/90
f 83/13/79 84/14/81 96/15/96 95/16/95
f 77/13/80 78/14/82 90/15/92 89/16/91
f 84/13/81 73/14/83 85/15/87 96/16/96
f 78/13/82 79/14/84 91/15/93 90/16/92
f 79/13/84 80/14/85 92/15/94 91/16/93
f 73/13/83 74/14/86 86/15/88 85/16/87
f 80/13/85 81/14/65 93/15/76 92/16/94
f 74/13/86 75/14/78 87/15/89 86/16/88
f 119/5/97 131/8/9 130/7/98 118/6/99
f 18/5/17 16/6/15 104/7/15 105/8/17
f 14/5/13 12/6/11 102/7/11 103/8/100
f 10/5/9 8/6/7 100/7/7 101/8/9
f 6/5/5 4/6/3 98/7/3 99/8/5
f 4/5/3 2/6/2 97/7/2 98/8/3
f 24/5/24 22/6/21 107/7/21 108/8/24
f 20/5/19 18/6/17 105/7/17 106/8/19
f 16/5/15 14/6/13 103/7/100 104/8/15
f 12/5/11 10/6/9 101/7/9 102/8/11
f 8/5/7 6/6/5 99/7/5 100/8/7
f 2/5/2 24/6/24 108/7/24 97/8/2
f 117/5/101 129/8/5 128/7/3 116/6/102
f 115/5/103 127/8/104 126/7/24 114/6/105
f 113/5/106 125/8/21 124/7/107 112/6/108
f 111/5/109 123/8/17 122/7/15 110/6/110
f 110/5/110 122/8/15 121/7/13 109/6/111
f 120/5/112 132/8/11 131/7/9 119/6/97
f 118/5/99 130/8/98 129/7/5 117/6/101
f 116/5/102 128/8/3 127/7/104 115/6/103
f 114/5/105 126/8/24 125/7/21 113/6/106
f 112/5/108 124/8/107 123/7/17 111/6/109
f 109/5/111 121/8/13 132/7/11 120/6/112
f 111/33/109 110/34/110 109/35/111 120/36/112 119/37/97 118/38/99 117/39/101 116/40/102 115/41/103 114/42/105 113/43/106 112/44/108
