# Blender v2.66 (sub 0) OBJ File: 'castle source.blend'
# www.blender.org
o stairs2_Cube.001_Cube
v 2.308050 -0.393585 -3.730540
v 2.308050 -0.033814 -3.730540
v 2.308292 -0.033816 3.708618
v 2.308292 -0.393587 3.708618
v 1.626518 -0.393587 3.578095
v 1.626335 -0.393585 -3.603577
v 2.308050 0.325957 -3.730540
v 2.308292 0.325955 3.708618
v 1.614444 0.325955 3.575785
v 1.614444 0.685725 3.575785
v 0.907053 0.685725 3.440357
v 0.932671 -0.033816 3.445260
v 1.614262 0.325957 -3.601328
v 1.614262 0.685727 -3.601328
v 0.907053 1.045496 3.440357
v 0.195128 1.045496 3.304061
v 0.225280 0.325955 3.309832
v 0.932548 -0.033814 -3.474366
v 0.906932 0.685727 -3.469595
v 0.906932 1.045498 -3.469595
v -1.177009 1.053702 3.041369
v -1.176950 1.053703 -3.081493
v -0.486645 0.685727 -3.210055
v -0.486645 0.685725 3.173538
v -0.486645 1.405267 3.173538
v 0.195128 1.405267 3.304061
v 0.195069 1.405269 -3.337018
v -0.486645 1.405268 -3.210055
v 0.195069 1.045498 -3.337018
v 0.225218 0.325957 -3.342633
v -1.189084 1.773245 3.039060
v -1.189084 2.133014 3.039060
v -1.896474 2.133014 2.903632
v -1.870858 1.413473 2.908537
v -1.189023 1.773245 -3.079246
v -1.189023 2.133015 -3.079246
v -1.896474 2.492785 2.903632
v -2.608399 2.492785 2.767339
v -2.578248 1.773245 2.773110
v -1.870738 1.413474 -2.952284
v -1.896352 2.133015 -2.947514
v -1.896352 2.492786 -2.947514
v -3.290174 2.133014 2.636813
v -3.290174 2.492785 2.636813
v -3.289929 2.492786 -2.687973
v -3.289929 2.133015 -2.687973
v -3.290174 2.852556 2.636813
v -3.289929 2.852556 -2.687973
v -2.608399 2.852556 2.767339
v -2.608216 2.852556 -2.814935
v -2.608216 2.492786 -2.814935
v -2.578067 1.773245 -2.820551
v -0.495235 1.773245 3.171895
v -0.495235 1.773245 -3.208455
vt 0.191299 0.620744
vt 0.191299 0.829215
vt 0.234065 0.829215
vt 0.234065 0.620744
vt 0.257297 0.022467
vt 0.257297 0.475982
vt 0.994273 0.475982
vt 0.994273 0.022467
vt 0.257297 0.513569
vt 0.257297 0.967084
vt 0.994273 0.967084
vt 0.994273 0.513569
vn 0.525864 -0.568255 -0.632862
vn 0.639088 0.000000 -0.769127
vn 0.637165 0.000000 0.770684
vn 0.524369 -0.568041 0.634266
vn 0.105136 -0.746330 0.657186
vn 0.107913 -0.745720 -0.657430
vn 0.525864 0.568255 -0.632862
vn 0.524369 0.568041 0.634266
vn 0.414319 0.327708 0.849055
vn 0.136967 0.352062 0.925871
vn -0.437574 -0.602649 0.667318
vn 0.417676 0.326060 -0.848048
vn 0.524369 0.568041 0.634297
vn -0.434584 -0.605121 0.667013
vn -0.434645 -0.603259 -0.668630
vn 0.141453 0.350658 -0.925718
vn -0.443007 -0.598773 0.667226
vn -0.440107 -0.599414 -0.668569
vn -0.437239 -0.605304 -0.665120
vn -0.440077 -0.604694 0.663808
vn 0.137120 0.359996 0.922788
vn 0.525864 0.568255 -0.632832
vn 0.141636 0.358592 -0.922666
vn -0.431684 -0.605762 -0.668325
vn -0.434584 -0.605152 0.666982
vn -0.434645 -0.603259 -0.668661
vn -0.734611 -0.416730 0.535386
vn -0.770714 0.000000 0.637135
vn -0.769097 0.000000 -0.639119
vn -0.733207 -0.416669 -0.537370
vn -0.623432 0.587939 0.515366
vn -0.622272 0.587634 -0.517106
vn 0.141453 0.350688 -0.925718
vn 0.516648 0.574725 0.634602
vn 0.518143 0.574938 -0.633168
s 1
f 1/1/1 2/2/2 3/3/3 4/4/4
f 1/3/1 4/4/4 5/1/5 6/2/6
f 2/5/2 7/6/7 8/7/8 3/8/3
f 9/1/9 10/2/8 11/3/10 12/4/11
f 13/5/12 14/6/7 10/7/8 9/8/9
f 11/1/10 15/2/13 16/3/10 17/4/14
f 3/1/3 8/2/8 9/3/9 5/4/5
f 4/1/4 3/3/3 5/4/5
f 18/1/15 19/2/16 14/3/7 13/4/12
f 19/5/16 20/6/7 15/7/13 11/8/10
f 6/1/6 13/2/12 7/3/7 2/4/2
f 2/3/2 1/4/1 6/1/6
f 21/1/17 22/2/18 23/3/19 24/4/20
f 25/9/21 26/10/13 27/11/22 28/12/23
f 29/5/16 27/6/22 26/7/13 16/8/10
f 30/1/24 29/2/16 20/3/7 19/4/16
f 9/9/9 8/10/8 7/11/7 13/12/12
f 17/1/14 30/2/24 18/3/15 12/4/11
f 5/1/5 9/3/9 12/4/11
f 18/1/15 13/3/12 6/4/6
f 11/9/10 10/10/8 14/11/7 19/12/16
f 30/1/24 19/3/16 18/4/15
f 12/1/11 11/3/10 17/4/14
f 24/1/20 23/2/19 30/3/24 17/4/14
f 6/1/6 13/2/12 9/3/9 5/4/5
f 16/9/10 15/10/13 20/11/7 29/12/16
f 12/1/11 18/2/15 6/3/6 5/4/5
f 23/1/19 29/3/16 30/4/24
f 31/1/10 32/2/13 33/3/10 34/4/11
f 35/5/16 36/6/22 32/7/13 31/8/10
f 33/1/10 37/2/13 38/3/10 39/4/25
f 23/1/19 28/2/23 27/3/22 29/4/16
f 40/1/26 41/2/16 36/3/22 35/4/16
f 41/5/16 42/6/22 37/7/13 33/8/10
f 43/1/27 44/2/28 45/3/29 46/4/30
f 24/1/20 25/3/21 21/4/17
f 44/1/28 47/2/31 48/3/32 45/4/29
f 47/9/31 49/10/13 50/11/22 48/12/32
f 45/1/29 48/2/32 50/3/22 51/4/33
f 38/1/10 49/2/13 47/3/31 44/4/28
f 51/5/33 50/6/22 49/7/13 38/8/10
f 52/1/24 51/2/33 42/3/22 41/4/16
f 31/9/10 53/10/34 54/11/35 35/12/16
f 39/1/25 52/2/24 40/3/26 34/4/11
f 46/1/30 45/2/29 51/3/33 52/4/24
f 21/1/17 31/3/10 34/4/11
f 40/1/26 35/3/16 22/4/18
f 33/9/10 32/10/13 36/11/22 41/12/16
f 52/1/24 41/3/16 40/4/26
f 39/1/25 38/2/10 44/3/28 43/4/27
f 34/1/11 33/3/10 39/4/25
f 43/1/27 46/2/30 52/3/24 39/4/25
f 38/9/10 37/10/13 42/11/22 51/12/33
f 34/1/11 40/2/26 22/3/18 21/4/17
f 22/1/18 35/2/16 54/3/35 28/4/23
f 25/1/21 53/2/34 31/3/10 21/4/17
f 16/1/10 26/2/13 25/3/21 24/4/20
f 17/1/14 16/2/10 24/3/20
f 28/5/23 54/6/35 53/7/34 25/8/21
f 22/1/18 28/3/23 23/4/19
